<?xml version="1.0" encoding="utf-8"?>
<!-- Generator: Adobe Illustrator 23.0.1, SVG Export Plug-In . SVG Version: 6.00 Build 0)  -->
<svg version="1.1" id="レイヤー_1" xmlns="http://www.w3.org/2000/svg" xmlns:xlink="http://www.w3.org/1999/xlink" x="0px"
	 y="0px" viewBox="0 0 512 512" style="enable-background:new 0 0 512 512;" xml:space="preserve">
<style type="text/css">
	.st0{clip-path:url(#SVGID_2_);}
	.st1{fill:#191919;}
	.st2{fill:#FFFFFF;}
</style>
<g>
	<defs>
		<path id="SVGID_1_" d="M452-1H60C27-1,0,26,0,59v392c0,33,27,60,60,60h209.3h88.6H452c33,0,60-27,60-60V59C512,26,485-1,452-1z"/>
	</defs>
	<clipPath id="SVGID_2_">
		<use xlink:href="#SVGID_1_"  style="overflow:visible;"/>
	</clipPath>
	<g class="st0">
		<rect y="-1" class="st1" width="512" height="512"/>
		<g>
			<path class="st2" d="M301.7,277.1c-2.9-6.9-6.9-13-12-18.2c-5-5.1-10.8-9.2-17.4-12.4c-0.6-0.3-1.2-0.6-1.8-0.8
				c0.4-0.3,0.9-0.6,1.3-1c5.3-4,9.9-8.8,13.5-14.1c3.6-5.3,6.3-11.2,8-17.5c1.7-6.2,2.5-12.6,2.5-19c0-21.5-8.5-37.8-25.4-48.5
				c-16-10.2-38.9-15.1-69.9-15.1H110v249.2h86c34.6,0,61.7-6.5,80.5-19.3c19.6-13.4,29.6-33.6,29.6-60
				C306.1,291.9,304.6,284,301.7,277.1z M172.7,275.8h22.9c15.7,0,27.2,2.5,34.3,7.3c6.4,4.4,9.4,10.1,9.4,17.9
				c0,3.9-0.8,7.4-2.4,10.7c-1.6,3.3-3.9,6.2-7,8.7c-3.2,2.6-7.3,4.7-12.3,6.2c-5.1,1.6-11.3,2.4-18.3,2.4h-26.7V275.8z M229,211.9
				c-1.1,2.9-2.9,5.4-5.5,7.6c-2.7,2.4-6.4,4.3-10.8,5.7c-4.7,1.5-10.7,2.3-17.8,2.3h-22.2v-47.6h22.2c7.1,0,13.2,0.6,18.1,1.9
				c4.5,1.1,8.2,2.7,10.9,4.7c2.4,1.8,4.1,3.8,5.2,6.2c1.2,2.7,1.8,5.7,1.8,9.1C230.8,205.4,230.2,208.8,229,211.9z"/>
			<path class="st2" d="M402,347c0,18-14.6,32.6-32.6,32.6c-18,0-32.6-14.6-32.6-32.6c0-18,14.6-32.6,32.6-32.6
				C387.3,314.4,402,329,402,347z"/>
			<rect x="337.9" y="130.4" class="st2" width="62.8" height="165.7"/>
		</g>
	</g>
</g>
</svg>
